<?xml version="1.0" encoding="utf-8"?>
<!-- Generator: Adobe Illustrator 16.0.0, SVG Export Plug-In . SVG Version: 6.00 Build 0)  -->
 
<svg version="1.1" id="Layer_1" xmlns="http://www.w3.org/2000/svg" xmlns:xlink="http://www.w3.org/1999/xlink" x="0px" y="0px"
	 width="50px" height="50px" viewBox="0 0 50 50"   xml:space="preserve">
<path fill="#666" d="M25.109,2C12.346,2,2,12.347,2,25.109c0,12.762,10.347,23.108,23.11,23.108
	c12.763,0,23.109-10.347,23.109-23.108C48.219,12.347,37.872,2,25.109,2z M25.053,41.302c-1.637,0-3.75-1.268-3.75-1.268v-1.755
	l7.291,1.875C28.02,40.469,26.381,41.302,25.053,41.302z M28.804,39.511l-7.501-1.928v-1.017l7.501,1.928V39.511z M28.804,37.797
	l-7.501-1.928v-0.113h7.501V37.797z M30.545,27.409c-0.95,2.325-1.531,5.494-1.531,5.494h-3.904h-3.904c0,0-0.581-3.169-1.532-5.494
	c-0.951-2.323-3.962-2.593-3.962-8.134c0-8.557,7.448-9.455,9.397-9.455s9.397,0.898,9.397,9.455
	C34.507,24.816,31.496,25.086,30.545,27.409z"/>
</svg>
