<?xml version="1.0" encoding="utf-8"?>
<!-- Generator: Adobe Illustrator 19.1.0, SVG Export Plug-In . SVG Version: 6.00 Build 0)  -->
<!DOCTYPE svg>
<svg version="1.1" id="Layer_1" xmlns="http://www.w3.org/2000/svg" xmlns:xlink="http://www.w3.org/1999/xlink" x="0px" y="0px"
	 width="16px" height="16px" viewBox="0 0 16 16" enable-background="new 0 0 16 16" xml:space="preserve">
<g>
	<path fill="#FFFFFF" d="M3,15.5c-1.4,0-2.5-1.1-2.5-2.5V3c0-1.4,1.1-2.5,2.5-2.5h10c1.4,0,2.5,1.1,2.5,2.5v10
		c0,1.4-1.1,2.5-2.5,2.5H3z"/>
	<path fill="#DADADA" d="M13,1c1.1,0,2,0.9,2,2v10c0,1.1-0.9,2-2,2H3c-1.1,0-2-0.9-2-2V3c0-1.1,0.9-2,2-2H13 M13,0H3
		C1.4,0,0,1.4,0,3v10c0,1.6,1.4,3,3,3h10c1.6,0,3-1.4,3-3V3C16,1.4,14.6,0,13,0L13,0z"/>
</g>
</svg>
