<?xml version="1.0" encoding="utf-8"?>
<!-- Generator: Adobe Illustrator 20.1.0, SVG Export Plug-In . SVG Version: 6.00 Build 0)  -->
<!DOCTYPE svg>
<svg version="1.1" id="Layer_1" xmlns="http://www.w3.org/2000/svg" xmlns:xlink="http://www.w3.org/1999/xlink" x="0px" y="0px"
	 width="24px" height="24px" viewBox="0 0 24 24" style="enable-background:new 0 0 24 24;" xml:space="preserve">
<style type="text/css">
	.st0{fill:#0B880B;}
	.st1{fill:#077D07;}
</style>
<g>
	<g>
		<rect x="8" y="11" transform="matrix(0.6027 -0.798 0.798 0.6027 -4.5854 15.6318)" class="st0" width="10.9" height="2.9"/>
		<rect x="8" y="11.1" transform="matrix(0.6027 -0.798 0.798 0.6027 -7.7673 13.2547)" class="st0" width="2.9" height="6.7"/>
	</g>
	<path class="st1" d="M12,2c5.5,0,10,4.5,10,10s-4.5,10-10,10S2,17.5,2,12S6.5,2,12,2 M12,0C5.4,0,0,5.4,0,12c0,6.6,5.4,12,12,12
		s12-5.4,12-12C24,5.4,18.6,0,12,0L12,0z"/>
</g>
</svg>
