<?xml version="1.0" encoding="utf-8"?>
<!-- Generator: Adobe Illustrator 19.1.0, SVG Export Plug-In . SVG Version: 6.00 Build 0)  -->
<!DOCTYPE svg>
<svg version="1.1" id="Layer_1" xmlns="http://www.w3.org/2000/svg" xmlns:xlink="http://www.w3.org/1999/xlink" x="0px" y="0px"
	 width="16px" height="16px" viewBox="-471 273 16 16" style="enable-background:new -471 273 16 16;" xml:space="preserve">
<style type="text/css">
	.st0{fill:#FFFFFF;}
	.st1{fill:#C4C4C4;}
	.st2{fill:#0074D7;}
</style>
<g>
	<path class="st0" d="M-463,288.5c-4.1,0-7.5-3.4-7.5-7.5s3.4-7.5,7.5-7.5s7.5,3.4,7.5,7.5S-458.9,288.5-463,288.5z"/>
	<path class="st1" d="M-463,274c3.9,0,7,3.1,7,7s-3.1,7-7,7s-7-3.1-7-7S-466.9,274-463,274 M-463,273c-4.4,0-8,3.6-8,8s3.6,8,8,8
		s8-3.6,8-8S-458.6,273-463,273L-463,273z"/>
</g>
<circle class="st2" cx="-463" cy="281" r="3"/>
</svg>
