<?xml version="1.0" encoding="utf-8"?>
<!-- Generator: Adobe Illustrator 19.2.1, SVG Export Plug-In . SVG Version: 6.00 Build 0)  -->
<!DOCTYPE svg>
<svg version="1.1" id="Layer_1" xmlns:sketch="http://www.bohemiancoding.com/sketch/ns"
	 xmlns="http://www.w3.org/2000/svg" xmlns:xlink="http://www.w3.org/1999/xlink" x="0px" y="0px" width="15.6px" height="14px"
	 viewBox="0 0 15.6 14" style="enable-background:new 0 0 15.6 14;" xml:space="preserve">
<style type="text/css">
	.st0{fill:#007FAD;}
	.st1{fill:#FFFFFF;}
</style>
<title>Page 1</title>
<desc>Created with Sketch.</desc>
<path class="st0" d="M8.9,0.8c-0.6-1-1.6-1-2.1,0L0.2,12.1c-0.6,1-0.1,1.9,1.1,1.9h12.9c1.2,0,1.7-0.8,1.1-1.9L8.9,0.8z"/>
<g>
	<path class="st1" d="M8.8,10.8c0,0.5-0.4,1-1,1c-0.5,0-0.9-0.4-0.9-1s0.5-1,1-1C8.4,9.8,8.8,10.3,8.8,10.8z M8.8,5
		C8.7,5.6,8.3,7.9,8.1,8.7c0,0.2-0.2,0.5-0.3,0.5C7.7,9.1,7.6,9,7.5,8.7C7.4,8,7,6,6.9,5.1c-0.1-0.9,0.5-1.4,1-1.4
		C8.5,3.7,8.8,4.6,8.8,5z"/>
</g>
</svg>
