<?xml version="1.0" encoding="utf-8"?>
<!-- Generator: Adobe Illustrator 20.1.0, SVG Export Plug-In . SVG Version: 6.00 Build 0)  -->
<!DOCTYPE svg>
<svg version="1.1" id="Layer_1" xmlns="http://www.w3.org/2000/svg" xmlns:xlink="http://www.w3.org/1999/xlink" x="0px" y="0px"
	 width="24px" height="24px" viewBox="0 0 24 24" style="enable-background:new 0 0 24 24;" xml:space="preserve">
<style type="text/css">
	.st0{fill:#D50D0D;}
</style>
<g>
	<path class="st0" d="M12,2c5.5,0,10,4.5,10,10s-4.5,10-10,10S2,17.5,2,12S6.5,2,12,2 M12,0C5.4,0,0,5.4,0,12s5.4,12,12,12
		s12-5.4,12-12S18.6,0,12,0L12,0z"/>
	<g>
		<rect x="11" y="5.9" transform="matrix(0.7071 0.7071 -0.7071 0.7071 11.9994 -4.9708)" class="st0" width="2" height="12.1"/>
		<rect x="11" y="5.9" transform="matrix(-0.7071 0.7071 -0.7071 -0.7071 28.97 11.9986)" class="st0" width="2" height="12.1"/>
	</g>
</g>
</svg>
