<?xml version="1.0" encoding="utf-8"?>
<!-- Generator: Adobe Illustrator 20.1.0, SVG Export Plug-In . SVG Version: 6.00 Build 0)  -->
<svg version="1.1" id="Layer_1" xmlns:sketch="http://www.bohemiancoding.com/sketch/ns"
	 xmlns="http://www.w3.org/2000/svg" xmlns:xlink="http://www.w3.org/1999/xlink" x="0px" y="0px" width="22px" height="22px"
	 viewBox="0 0 22 22" style="enable-background:new 0 0 22 22;" xml:space="preserve">
<style type="text/css">
	.st0{fill:#E06107;}
</style>
<title>Oval 1 + plus_grey</title>
<desc>Created with Sketch.</desc>
<g>
	<path class="st0" d="M11,0.2c-4.5,0-8.1,3.6-8.1,8.1c0,2.9,1.5,5.6,4.1,7v3.1c0,1,0.7,1.8,1.7,2c0.5,0.8,1.4,1.4,2.4,1.4
		s1.9-0.5,2.4-1.4c1-0.2,1.7-1,1.7-2v-3.1c2.5-1.5,4.1-4.1,4.1-7C19.1,3.8,15.5,0.2,11,0.2z M14.1,14.3l-0.4,0.2v1.2H8.3v-1.2
		l-0.4-0.2c-2.3-1.2-3.7-3.5-3.7-6c0-3.7,3-6.8,6.8-6.8s6.8,3,6.8,6.8C17.8,10.8,16.4,13.2,14.1,14.3z"/>
</g>
</svg>
