<?xml version="1.0" encoding="utf-8"?>
<!-- Generator: Adobe Illustrator 19.1.0, SVG Export Plug-In . SVG Version: 6.00 Build 0)  -->
<!DOCTYPE svg>
<svg version="1.1" id="Layer_1" xmlns:sketch="http://www.bohemiancoding.com/sketch/ns"
	 xmlns="http://www.w3.org/2000/svg" xmlns:xlink="http://www.w3.org/1999/xlink" x="0px" y="0px" width="19px" height="19px"
	 viewBox="-294 386 19 19" style="enable-background:new -294 386 19 19;" xml:space="preserve">
<style type="text/css">
	.st0{opacity:1;fill:#333333;}
	.st1{opacity:0.5;fill:#FFFFFF;}
</style>
<title>Oval 1 + plus_grey</title>
<desc>Created with Sketch.</desc>
<g id="Page-1" sketch:type="MSPage">
	<g id="ViewScreens" transform="translate(-855.000000, -142.000000)" sketch:type="MSArtboardGroup">
		<g id="Oval-1-_x2B_-plus_x5F_grey" transform="translate(855.000000, 142.000000)" sketch:type="MSLayerGroup">
			<path class="st0" d="M-284.5,386c-5.2,0-9.5,4.3-9.5,9.5s4.3,9.5,9.5,9.5s9.5-4.3,9.5-9.5S-279.3,386-284.5,386z M-280,396h-4v4
				h-1v-4h-4v-1h4v-4h1v4h4V396z"/>
			<polygon class="st1" points="-280,395 -284,395 -284,391 -285,391 -285,395 -289,395 -289,396 -285,396 -285,400 -284,400 
				-284,396 -280,396 			"/>
		</g>
	</g>
</g>
</svg>
