<?xml version="1.0" encoding="utf-8"?>
<!-- Generator: Adobe Illustrator 20.1.0, SVG Export Plug-In . SVG Version: 6.00 Build 0)  -->
<svg version="1.1" id="Layer_1" xmlns:sketch="http://www.bohemiancoding.com/sketch/ns"
	 xmlns="http://www.w3.org/2000/svg" xmlns:xlink="http://www.w3.org/1999/xlink" x="0px" y="0px" width="13px" height="13px"
	 viewBox="0 0 13 13" style="enable-background:new 0 0 13 13;" xml:space="preserve">
<style type="text/css">
	.st0{fill:#FFFFFF;stroke:#FFFFFF;stroke-miterlimit:10;}
</style>
<title>Oval 1 + plus_grey</title>
<desc>Created with Sketch.</desc>
<g>
	<defs>
		<path id="SVGID_1_" d="M12.5,0.7c-0.1-0.1-0.2-0.2-0.4-0.2H9c-0.2,0-0.4,0.2-0.4,0.4c0,0.2,0.2,0.4,0.4,0.4h2.2L7,5.4
			C6.9,5.6,6.9,5.8,7,6c0.2,0.2,0.4,0.2,0.6,0l4.1-4.1V4c0,0.2,0.2,0.4,0.4,0.4c0.2,0,0.4-0.2,0.4-0.4V0.9
			C12.5,0.8,12.5,0.8,12.5,0.7z M11.7,7.5c0,0,0,3.8,0,3.8c0,0.2-0.2,0.4-0.4,0.4H1.7c-0.2,0-0.4-0.2-0.4-0.4V1.7
			c0-0.2,0.2-0.4,0.4-0.4h3.8c0.2,0,0.4-0.2,0.4-0.4c0-0.2-0.2-0.4-0.4-0.4H0.9c-0.2,0-0.4,0.2-0.4,0.4v11.2c0,0.2,0.2,0.4,0.4,0.4
			h11.2c0.2,0,0.4-0.2,0.4-0.4l0-4.6c0-0.2-0.2-0.4-0.4-0.4C11.9,7.1,11.7,7.3,11.7,7.5z"/>
	</defs>
	<clipPath id="SVGID_2_">
		<use xlink:href="#SVGID_1_"  style="overflow:visible;"/>
	</clipPath>
</g>
<path class="st0" d="M12.5,0.7c-0.1-0.1-0.2-0.2-0.4-0.2H9c-0.2,0-0.4,0.2-0.4,0.4c0,0.2,0.2,0.4,0.4,0.4h2.2L7,5.4
	C6.9,5.6,6.9,5.8,7,6c0.2,0.2,0.4,0.2,0.6,0l4.1-4.1V4c0,0.2,0.2,0.4,0.4,0.4c0.2,0,0.4-0.2,0.4-0.4V0.9C12.5,0.8,12.5,0.8,12.5,0.7
	z"/>
<path class="st0" d="M11.7,7.5c0,0,0,3.8,0,3.8c0,0.2-0.2,0.4-0.4,0.4H1.7c-0.2,0-0.4-0.2-0.4-0.4V1.7c0-0.2,0.2-0.4,0.4-0.4h3.8
	c0.2,0,0.4-0.2,0.4-0.4c0-0.2-0.2-0.4-0.4-0.4H0.9c-0.2,0-0.4,0.2-0.4,0.4v11.2c0,0.2,0.2,0.4,0.4,0.4h11.2c0.2,0,0.4-0.2,0.4-0.4
	l0-4.6c0-0.2-0.2-0.4-0.4-0.4C11.9,7.1,11.7,7.3,11.7,7.5z"/>
</svg>
