<?xml version="1.0" encoding="utf-8"?>
<!-- Generator: Adobe Illustrator 19.2.1, SVG Export Plug-In . SVG Version: 6.00 Build 0)  -->
<!DOCTYPE svg>
<svg version="1.1" id="Layer_1" xmlns="http://www.w3.org/2000/svg" xmlns:xlink="http://www.w3.org/1999/xlink" x="0px" y="0px"
	 width="22px" height="14px" viewBox="0 0 22 14" style="enable-background:new 0 0 22 14;" xml:space="preserve">
<style type="text/css">
	.st0{fill:#007fad;}
</style>
<g>
	<g>
		<path class="st0" d="M15,1v2H7V1H15 M16,0H6v4h10V0L16,0z"/>
	</g>
	<path class="st0" d="M20,3H2C0.9,3,0,3.9,0,5v6c0,1.1,0.9,2,2,2h4v-2H2V5h18v6h-4v2h4c1.1,0,2-0.9,2-2V5C22,3.9,21.1,3,20,3z"/>
	<g>
		<path class="st0" d="M15,9v4H7V9H15 M16,8H6v6h10V8L16,8z"/>
	</g>
</g>
</svg>
