<?xml version="1.0" encoding="utf-8"?>
<!-- Generator: Adobe Illustrator 19.1.0, SVG Export Plug-In . SVG Version: 6.00 Build 0)  -->
<!DOCTYPE svg>
<svg version="1.1" id="Layer_1" xmlns="http://www.w3.org/2000/svg" xmlns:xlink="http://www.w3.org/1999/xlink" x="0px" y="0px"
	 width="16px" height="16px" viewBox="0 0 16 16" enable-background="new 0 0 16 16" xml:space="preserve">
<path fill="#FFFFFF" d="M15,4H1C0.4,4,0,3.6,0,3v0c0-0.5,0.4-1,1-1h14c0.5,0,1,0.4,1,1v0C16,3.6,15.6,4,15,4z"/>
<path fill="#FFFFFF" d="M10,2H6c0,0,0-0.4,0-1v0c0-0.5,0.4-1,1-1l2,0c0.5,0,1,0.4,1,1v0C10,1.6,10,2,10,2z"/>
<g>
	<path fill="#FFFFFF" d="M11,15c1.1,0,2-0.9,2-1.9V5v9.2c0,0.5-0.5,0.8-1,0.8H11z M4,15c-0.5,0-1-0.4-1-0.8V5v8.1
		C3,14.1,3.9,15,5,15H4z"/>
	<path fill="#FFFFFF" d="M14,4h-2c0,0,0,0.4,0,0.9v8.2c0,0.5-0.5,0.9-1,0.9H5c-0.5,0-1-0.4-1-0.9V4.9C4,4.4,4,4,4,4H2
		c0,0,0,0.8,0,1.8v8.3c0,1,0.9,1.8,2,1.8h8c1.1,0,2-0.8,2-1.8V5.8C14,4.8,14,4,14,4L14,4z"/>
</g>
<rect x="6" y="6" fill="#FFFFFF" width="1" height="6"/>
<rect x="9" y="6" fill="#FFFFFF" width="1" height="6"/>
</svg>
