<?xml version="1.0" encoding="utf-8"?>
<!-- Generator: Adobe Illustrator 19.2.1, SVG Export Plug-In . SVG Version: 6.00 Build 0)  -->
<!DOCTYPE svg>
<svg version="1.1" id="Layer_1" xmlns="http://www.w3.org/2000/svg" xmlns:xlink="http://www.w3.org/1999/xlink" x="0px" y="0px"
	 width="18px" height="17px" viewBox="0 0 18 17" style="enable-background:new 0 0 18 17;" xml:space="preserve">
<style type="text/css">
	.st0{fill:#757575;}
</style>
<polygon class="st0" points="10,8 10,13 14,10.5 "/>
<path class="st0" d="M11,10H1V1h12v2h1V1c0-0.5-0.5-1-1-1H1C0.5,0,0,0.5,0,1v9c0,0.5,0.5,1,1,1h10V10z"/>
<path class="st0" d="M17,4H5C4.4,4,4,4.5,4,5v4h2V6h10v9H6v-3H4v4c0,0.5,0.5,1,1,1h12c0.5,0,1-0.5,1-1V5C18,4.5,17.5,4,17,4z"/>
</svg>
