<?xml version="1.0" encoding="utf-8"?>
<!-- Generator: Adobe Illustrator 19.1.0, SVG Export Plug-In . SVG Version: 6.00 Build 0)  -->
<!DOCTYPE svg>
<svg version="1.1" id="Layer_1" xmlns="http://www.w3.org/2000/svg" xmlns:xlink="http://www.w3.org/1999/xlink" x="0px" y="0px"
	 width="26px" height="26px" viewBox="0 0 26 26" enable-background="new 0 0 26 26" xml:space="preserve">
<circle fill="#D50D0D" cx="13" cy="13" r="13"/>
<g>
	<path fill="#FFFFFF" d="M11,19.5c0,0.3-0.2,0.5-0.5,0.5l0,0c-0.3,0-0.5-0.2-0.5-0.5v-12C10,7.2,10.2,7,10.5,7l0,0
		C10.8,7,11,7.2,11,7.5V19.5z"/>
</g>
<g>
	<path fill="#FFFFFF" d="M12,14c0,0.6,0,1,0,1s0.4-0.2,0.9-0.4l7.1-2.8c0.5-0.2,0.5-0.5,0-0.7l-7.1-2.8C12.4,8.2,12,8,12,8
		s0,0.5,0,1V14z"/>
</g>
</svg>
