<?xml version="1.0" encoding="utf-8"?>
<!-- Generator: Adobe Illustrator 19.1.0, SVG Export Plug-In . SVG Version: 6.00 Build 0)  -->
<!DOCTYPE svg>
<svg version="1.1" id="Layer_1" xmlns="http://www.w3.org/2000/svg" xmlns:xlink="http://www.w3.org/1999/xlink" x="0px" y="0px"
	 width="10.5px" height="13px" viewBox="-474 274 10.5 13" enable-background="new -474 274 10.5 13" xml:space="preserve">
<g>
	<path fill="#FFFFFF" d="M-473,286.5c0,0.3-0.2,0.5-0.5,0.5l0,0c-0.3,0-0.5-0.2-0.5-0.5v-12c0-0.3,0.2-0.5,0.5-0.5l0,0
		c0.3,0,0.5,0.2,0.5,0.5V286.5z"/>
</g>
<g>
	<path fill="#FFFFFF" d="M-472,281c0,0.5,0,1,0,1s0.4-0.2,0.9-0.4l7.1-2.8c0.5-0.2,0.5-0.5,0-0.7l-7.1-2.7c-0.5-0.2-0.9-0.4-0.9-0.4
		s0,0.5,0,1V281z"/>
</g>
</svg>
