<?xml version="1.0" encoding="UTF-8"?>
<svg width="22px" height="20px" viewBox="0 0 22 20" version="1.1" xmlns="http://www.w3.org/2000/svg" xmlns:xlink="http://www.w3.org/1999/xlink">
    <!-- Generator: Sketch 52.5 (67469) - http://www.bohemiancoding.com/sketch -->
    <title>split-icon-ocean</title>
    <desc>Created with Sketch.</desc>
    <defs>
        <path d="M10.2865434,0.000361597083 C10.5783804,0.000660284816 10.8699358,0.108993176 11.0923429,0.325222222 L13.5220571,2.68522222 C13.5359649,2.69870905 13.5494398,2.71245635 13.5624818,2.72644793 L15.6660571,4.76966667 C15.9011232,4.99761859 16.0125344,5.29997776 16.0004571,5.5986231 L16.0004571,17.7777778 C16.0004571,19.0055556 14.9764571,20 13.7147429,20 L2.28617143,20 C1.02331429,20 0.000457142857,19.0055556 0.000457142857,17.7777778 L0.000457142857,2.22222222 C0.000457142857,0.994444444 1.02331429,0 2.28617143,0 L10.2861714,0 Z M13.7147429,6.66666667 L13.7147429,17.7777778 L2.28617143,17.7777778 L2.28617143,2.22222222 L9.14285714,2.22222222 L9.14285714,6.66666667 L13.7147429,6.66666667 Z" id="path-1"></path>
    </defs>
    <g id="Split" stroke="none" stroke-width="1" fill="none" fill-rule="evenodd">
        <g id="Split-Hover" transform="translate(-907.000000, -572.000000)">
            <g id="split-icon-ocean" transform="translate(907.000000, 572.000000)">
                <g id="Icons/Editing/page" transform="translate(3.000000, 0.000000)">
                    <mask id="mask-2" fill="white">
                        <use xlink:href="#path-1"></use>
                    </mask>
                    <use id="Mask" fill="#000000" fill-rule="evenodd" xlink:href="#path-1"></use>
                    <g id="Colors/ocean-6" mask="url(#mask-2)" fill="#007FAD" fill-rule="evenodd">
                        <rect id="Rectangle-3" x="0" y="0" width="16" height="20"></rect>
                    </g>
                </g>
                <g id="Group" transform="translate(0.000000, 9.000000)" stroke="#007FAD" stroke-dasharray="2,3" stroke-linecap="square">
                    <path d="M0,1.46666667 L22,1.46666667" id="Line"></path>
                </g>
            </g>
        </g>
    </g>
</svg>