<?xml version="1.0" encoding="utf-8"?>
<!-- Generator: Adobe Illustrator 19.2.1, SVG Export Plug-In . SVG Version: 6.00 Build 0)  -->
<!DOCTYPE svg>
<svg version="1.1" id="Layer_1" xmlns="http://www.w3.org/2000/svg" xmlns:xlink="http://www.w3.org/1999/xlink" x="0px" y="0px"
	 width="40px" height="80px" viewBox="0 0 40 80" style="enable-background:new 0 0 40 80;" xml:space="preserve">
<style type="text/css">
	.st0{fill:#F6F6F6;}
	.st1{fill:#E4E4E4;}
	.st2{fill:#017EAC;}
</style>
<g>
	<path class="st0" d="M39,79C18,78.5,1,61.2,1,40S18,1.5,39,1V79z"/>
	<path class="st1" d="M38,2.1v75.9C18,76.9,2,60.3,2,40S18,3.1,38,2.1 M40,0C17.9,0,0,17.9,0,40c0,22.1,17.9,40,40,40V0L40,0z"/>
</g>
<g>
	<polygon class="st2" points="28.5,32.2 26.4,34.3 21.5,29.3 16.6,34.3 14.5,32.2 21.5,25.1 	"/>
	<g>
		<path class="st2" d="M16.9,43.8h-2.2v7h-2v-7h-2.2v-1.5h6.5V43.8z"/>
		<path class="st2" d="M24.6,47.3c0,1.1-0.3,1.9-1,2.6s-1.5,1-2.6,1c-1.1,0-2-0.3-2.6-1s-1-1.5-1-2.6v-1.5c0-1,0.3-1.9,1-2.6
			s1.5-1,2.6-1c1.1,0,1.9,0.3,2.6,1s1,1.5,1,2.6V47.3z M22.6,45.7c0-0.6-0.1-1.1-0.4-1.5s-0.7-0.6-1.2-0.6c-0.5,0-0.9,0.2-1.2,0.6
			s-0.4,0.9-0.4,1.5v1.5c0,0.6,0.1,1.1,0.4,1.5s0.7,0.6,1.2,0.6c0.5,0,0.9-0.2,1.2-0.6s0.4-0.9,0.4-1.5V45.7z"/>
		<path class="st2" d="M27.8,47.8v2.9h-2v-8.5h3.5c1,0,1.8,0.3,2.4,0.8c0.6,0.5,0.9,1.2,0.9,2c0,0.8-0.3,1.5-0.9,2
			c-0.6,0.5-1.4,0.8-2.4,0.8H27.8z M27.8,46.3h1.5c0.4,0,0.8-0.1,1-0.4s0.3-0.5,0.3-0.9c0-0.4-0.1-0.7-0.3-0.9s-0.6-0.4-1-0.4h-1.5
			V46.3z"/>
	</g>
</g>
</svg>
