<?xml version="1.0" encoding="utf-8"?>
<!-- Generator: Adobe Illustrator 19.1.0, SVG Export Plug-In . SVG Version: 6.00 Build 0)  -->
<!DOCTYPE svg>
<svg version="1.1" id="Layer_1" xmlns="http://www.w3.org/2000/svg" xmlns:xlink="http://www.w3.org/1999/xlink" x="0px" y="0px"
	 width="29px" height="17.7px" viewBox="-461.2 271.1 29 17.7" style="enable-background:new -461.2 271.1 29 17.7;"
	 xml:space="preserve">
<style type="text/css">
	.st0{enable-background:new    ;}
	.st1{fill:#007FAD;}
</style>
<g class="st0">
	<path class="st1" d="M-446.6,288.7h-3.3v-7.6h-8.1v7.6h-3.3v-17.4h3.3v7.5h8.1v-7.5h3.3V288.7z"/>
</g>
<g>
	<path class="st1" d="M-437.8,271.1c0.8,0,1.5,0.1,2.2,0.3c0.6,0.2,1.2,0.5,1.7,0.9s0.8,0.9,1,1.4s0.4,1.1,0.4,1.8
		c0,0.6-0.1,1-0.2,1.5s-0.3,0.8-0.5,1.1c-0.2,0.3-0.5,0.6-0.9,0.8c-0.3,0.2-0.7,0.4-1.2,0.5c1,0.3,1.8,0.8,2.3,1.5
		c0.5,0.7,0.8,1.5,0.8,2.5c0,0.9-0.2,1.6-0.5,2.3c-0.3,0.7-0.8,1.2-1.3,1.7s-1.2,0.8-1.9,1c-0.7,0.2-1.5,0.3-2.3,0.3
		c-0.9,0-1.6-0.1-2.3-0.3c-0.6-0.2-1.2-0.5-1.7-0.9c-0.5-0.4-0.9-0.9-1.2-1.4c-0.3-0.6-0.6-1.2-0.9-2l1.3-0.5
		c0.2-0.1,0.5-0.1,0.7-0.1c0.2,0,0.4,0,0.6,0.1s0.3,0.2,0.4,0.4c0.1,0.3,0.3,0.6,0.5,0.8c0.2,0.3,0.4,0.5,0.6,0.7
		c0.2,0.2,0.5,0.4,0.8,0.5c0.3,0.1,0.7,0.2,1.2,0.2c0.5,0,0.9-0.1,1.3-0.2s0.7-0.4,0.9-0.6c0.3-0.3,0.4-0.6,0.6-0.9s0.2-0.6,0.2-1
		c0-0.4,0-0.8-0.1-1.1c-0.1-0.3-0.3-0.6-0.6-0.9c-0.3-0.2-0.7-0.4-1.2-0.6c-0.5-0.1-1.2-0.2-2.1-0.2v-2.1c0.7,0,1.3-0.1,1.8-0.2
		c0.5-0.1,0.9-0.3,1.1-0.5c0.3-0.2,0.5-0.5,0.6-0.8c0.1-0.3,0.2-0.7,0.2-1.1c0-0.8-0.2-1.4-0.7-1.9s-1.1-0.6-1.8-0.6
		c-0.7,0-1.3,0.2-1.8,0.6s-0.8,0.8-1,1.4c-0.1,0.3-0.2,0.5-0.4,0.7s-0.4,0.2-0.7,0.2c-0.1,0-0.3,0-0.4,0l-1.6-0.3
		c0.1-0.8,0.4-1.6,0.7-2.2c0.3-0.6,0.8-1.2,1.3-1.6c0.5-0.4,1.1-0.7,1.8-0.9C-439.3,271.2-438.6,271.1-437.8,271.1z"/>
</g>
</svg>
