<?xml version="1.0" encoding="utf-8"?>
<!-- Generator: Adobe Illustrator 19.1.0, SVG Export Plug-In . SVG Version: 6.00 Build 0)  -->
<!DOCTYPE svg>
<svg version="1.1" id="Layer_1" xmlns="http://www.w3.org/2000/svg" xmlns:xlink="http://www.w3.org/1999/xlink" x="0px" y="0px"
	 width="28.2px" height="17.3px" viewBox="-461.2 271.1 28.2 17.3" enable-background="new -461.2 271.1 28.2 17.3"
	 xml:space="preserve">
<g>
	<path fill="#007FAD" d="M-447.5,288.4h-3.4v-7.1h-7v7.1h-3.4v-17.1h3.4v7.3h7v-7.3h3.4V288.4z"/>
	<path fill="#007FAD" d="M-433,288.4h-11.6v-2.2l5.5-5.9c0.8-0.9,1.4-1.7,1.7-2.3s0.5-1.2,0.5-1.8c0-0.7-0.2-1.3-0.6-1.8
		s-0.9-0.7-1.6-0.7c-0.8,0-1.4,0.3-1.8,0.8s-0.6,1.2-0.6,2.1h-3.3l0-0.1c0-1.5,0.5-2.8,1.5-3.9s2.5-1.6,4.2-1.6
		c1.8,0,3.1,0.5,4.1,1.4s1.5,2.1,1.5,3.7c0,1-0.3,2-0.8,2.9s-1.5,2-2.8,3.4l-3,3.3l0,0.1h7.2V288.4z"/>
</g>
</svg>
