<?xml version="1.0" encoding="utf-8"?>
<!-- Generator: Adobe Illustrator 19.1.0, SVG Export Plug-In . SVG Version: 6.00 Build 0)  -->
<!DOCTYPE svg>
<svg version="1.1" id="Layer_1" xmlns="http://www.w3.org/2000/svg" xmlns:xlink="http://www.w3.org/1999/xlink" x="0px" y="0px"
	 width="40px" height="17.7px" viewBox="-459 272.3 40 17.7" enable-background="new -459 272.3 40 17.7" xml:space="preserve">
<g>
	<rect x="-459" y="289" fill="#C2C2C2" width="40" height="1"/>
	<rect x="-447" y="274" fill="none" width="26.3" height="15.7"/>
	<g enable-background="new    ">
		<path fill="#444444" d="M-437.5,284.3h-1.1c-0.1,0-0.2,0-0.3-0.1s-0.1-0.1-0.2-0.2l-0.9-2.4h-4.5l-0.9,2.4c0,0.1-0.1,0.2-0.2,0.2
			c-0.1,0.1-0.2,0.1-0.3,0.1h-1.1l4-10h1.4L-437.5,284.3z M-444.1,280.6h3.7l-1.6-4.1c-0.1-0.3-0.2-0.6-0.3-0.9
			c-0.1,0.2-0.1,0.4-0.2,0.5c0,0.2-0.1,0.3-0.1,0.4L-444.1,280.6z"/>
		<path fill="#444444" d="M-431.2,284.3h-0.6c-0.1,0-0.2,0-0.3-0.1c-0.1,0-0.1-0.1-0.1-0.2l-0.1-0.7c-0.2,0.2-0.4,0.3-0.5,0.5
			c-0.2,0.1-0.4,0.2-0.6,0.3c-0.2,0.1-0.4,0.2-0.6,0.2s-0.5,0.1-0.7,0.1c-0.3,0-0.5,0-0.8-0.1s-0.4-0.2-0.6-0.3
			c-0.2-0.2-0.3-0.3-0.4-0.6c-0.1-0.2-0.2-0.5-0.2-0.8c0-0.3,0.1-0.6,0.2-0.8c0.2-0.3,0.4-0.5,0.7-0.7c0.3-0.2,0.8-0.4,1.3-0.5
			c0.6-0.1,1.2-0.2,2-0.2v-0.6c0-0.6-0.1-1-0.4-1.3c-0.2-0.3-0.6-0.4-1-0.4c-0.3,0-0.6,0-0.8,0.1c-0.2,0.1-0.4,0.2-0.5,0.3
			c-0.2,0.1-0.3,0.2-0.4,0.3c-0.1,0.1-0.2,0.1-0.3,0.1c-0.1,0-0.2,0-0.2-0.1c-0.1,0-0.1-0.1-0.2-0.2l-0.2-0.4
			c0.4-0.4,0.8-0.7,1.3-0.8c0.5-0.2,1-0.3,1.5-0.3c0.4,0,0.7,0.1,1.1,0.2c0.3,0.1,0.6,0.3,0.8,0.5c0.2,0.2,0.4,0.5,0.5,0.8
			s0.2,0.7,0.2,1.1V284.3z M-434.5,283.6c0.2,0,0.4,0,0.6-0.1c0.2,0,0.4-0.1,0.5-0.2c0.2-0.1,0.3-0.2,0.5-0.3
			c0.1-0.1,0.3-0.2,0.4-0.4v-1.5c-0.6,0-1.1,0-1.5,0.1c-0.4,0.1-0.7,0.2-1,0.3c-0.3,0.1-0.4,0.3-0.5,0.4c-0.1,0.2-0.2,0.3-0.2,0.5
			c0,0.2,0,0.3,0.1,0.5c0.1,0.1,0.1,0.2,0.2,0.3c0.1,0.1,0.2,0.2,0.4,0.2C-434.8,283.5-434.6,283.6-434.5,283.6z"/>
	</g>
</g>
</svg>
