<?xml version="1.0" encoding="utf-8"?>
<!-- Generator: Adobe Illustrator 19.2.1, SVG Export Plug-In . SVG Version: 6.00 Build 0)  -->
<!DOCTYPE svg>
<svg version="1.1" id="Layer_1" xmlns="http://www.w3.org/2000/svg" xmlns:xlink="http://www.w3.org/1999/xlink" x="0px" y="0px"
	 width="40px" height="14px" viewBox="0 0 40 14" style="enable-background:new 0 0 40 14;" xml:space="preserve">
<style type="text/css">
	.st0{fill:#007FAD;}
	.st1{fill:#FFFFFF;}
	.st2{fill:#017FAD;}
</style>
<path class="st0" d="M37,0H26v14h11c1.7,0,3-1.4,3-3V3C40,1.3,38.7,0,37,0z"/>
<polygon class="st1" points="33,9 36,5 30,5 "/>
<g>
	<path class="st2" d="M38,1c0.6,0,1,0.4,1,1v10c0,0.6-0.4,1-1,1H2c-0.6,0-1-0.4-1-1V2c0-0.6,0.4-1,1-1H38 M38,0H2C0.9,0,0,0.9,0,2
		v10c0,1.1,0.9,2,2,2h36c1.1,0,2-0.9,2-2V2C40,0.9,39.1,0,38,0L38,0z"/>
</g>
</svg>
