<?xml version="1.0" encoding="utf-8"?>
<!-- Generator: Adobe Illustrator 19.1.0, SVG Export Plug-In . SVG Version: 6.00 Build 0)  -->
<!DOCTYPE svg>
<svg version="1.1" id="Layer_1" xmlns="http://www.w3.org/2000/svg" xmlns:xlink="http://www.w3.org/1999/xlink" x="0px" y="0px"
	 width="40px" height="14px" viewBox="-459 274 40 14" enable-background="new -459 274 40 14" xml:space="preserve">
<g>
	<path fill="#007FAD" d="M-422,276c0.5,0,1,0.5,1,1v8c0,0.5-0.5,1-1,1h-34c-0.5,0-1-0.5-1-1v-8c0-0.5,0.5-1,1-1H-422 M-422,274h-34
		c-1.6,0-3,1.4-3,3v8c0,1.6,1.4,3,3,3h34c1.6,0,3-1.4,3-3v-8C-419,275.4-420.4,274-422,274L-422,274z"/>
</g>
<path fill="#007FAD" d="M-422,274h-11v14h11c1.7,0,3-1.4,3-3v-8C-419,275.3-420.3,274-422,274z"/>
<polygon fill="#FFFFFF" points="-426,283 -423,279 -429,279 "/>
</svg>
