<?xml version="1.0" encoding="utf-8"?>
<!-- Generator: Adobe Illustrator 19.2.1, SVG Export Plug-In . SVG Version: 6.00 Build 0)  -->
<!DOCTYPE svg>
<svg version="1.1" id="Layer_1" xmlns="http://www.w3.org/2000/svg" xmlns:xlink="http://www.w3.org/1999/xlink" x="0px" y="0px"
	 width="40px" height="20px" viewBox="0 0 40 20" style="enable-background:new 0 0 40 20;" xml:space="preserve">
<style type="text/css">
	.st0{fill:#007FAD;}
	.st1{fill:#C4C4C3;}
</style>
<g>
	<rect x="9" y="5" class="st0" width="26" height="1"/>
	<rect x="5" y="8" class="st0" width="30" height="1"/>
	<rect x="5" y="11" class="st0" width="30" height="1"/>
	<rect x="5" y="14" class="st0" width="30" height="1"/>
	<g>
		<path class="st1" d="M38,1c0.6,0,1,0.4,1,1v16c0,0.6-0.4,1-1,1H2c-0.6,0-1-0.4-1-1V2c0-0.6,0.4-1,1-1H38 M38,0H2C0.9,0,0,0.9,0,2
			v16c0,1.1,0.9,2,2,2h36c1.1,0,2-0.9,2-2V2C40,0.9,39.1,0,38,0L38,0z"/>
	</g>
</g>
</svg>
