<?xml version="1.0" encoding="utf-8"?>
<!-- Generator: Adobe Illustrator 19.2.1, SVG Export Plug-In . SVG Version: 6.00 Build 0)  -->
<!DOCTYPE svg>
<svg version="1.1" id="Layer_1" xmlns="http://www.w3.org/2000/svg" xmlns:xlink="http://www.w3.org/1999/xlink" x="0px" y="0px"
	 width="39px" height="26px" viewBox="0 0 39 26" style="enable-background:new 0 0 39 26;" xml:space="preserve">
<style type="text/css">
	.st0{fill:#C2C2C2;}
	.st1{fill:#007FAD;}
</style>
<g>
	<path class="st0" d="M37,3h-1V2c0-1.1-0.9-2-2-2H2C0.9,0,0,0.9,0,2v19c0,1.1,0.9,2,2,2h1v1c0,1.1,0.9,2,2,2h32c1.1,0,2-0.9,2-2V5
		C39,3.9,38.1,3,37,3z M2,22c-0.6,0-1-0.4-1-1V2c0-0.6,0.4-1,1-1h32c0.6,0,1,0.4,1,1v19c0,0.6-0.4,1-1,1H2z M38,24c0,0.6-0.4,1-1,1
		H5c-0.6,0-1-0.4-1-1v-1h30c1.1,0,2-0.9,2-2V4h1c0.6,0,1,0.4,1,1V24z"/>
	<circle class="st1" cx="20.5" cy="5.5" r="1.5"/>
	<path class="st1" d="M31.4,18.2l-5.9-8.4c-0.3-0.5-0.8-0.5-1.1,0L20.1,16L13.5,5.8c-0.3-0.5-0.8-0.5-1.1,0L4.5,18.2
		C4.2,18.6,4.5,19,5,19l26,0C31.6,19,31.7,18.6,31.4,18.2z"/>
</g>
</svg>
