<?xml version="1.0" encoding="utf-8"?>
<!-- Generator: Adobe Illustrator 19.2.1, SVG Export Plug-In . SVG Version: 6.00 Build 0)  -->
<!DOCTYPE svg>
<svg version="1.1" id="Layer_1" xmlns="http://www.w3.org/2000/svg" xmlns:xlink="http://www.w3.org/1999/xlink" x="0px" y="0px"
	 width="52.2px" height="15.4px" viewBox="0 0 52.2 15.4" style="enable-background:new 0 0 52.2 15.4;" xml:space="preserve">
<style type="text/css">
	.st0{fill:#007FAD;}
</style>
<g>
	<path class="st0" d="M8.1,11.5c0-0.5-0.2-1-0.6-1.3c-0.4-0.3-1.1-0.6-2-0.9c-1.7-0.5-3-1.1-3.8-1.7S0.4,5.9,0.4,4.8
		s0.5-2.1,1.5-2.9s2.3-1.1,3.8-1.1c1.6,0,2.8,0.4,3.8,1.2c1,0.8,1.5,1.9,1.4,3.1l0,0.1H8.1c0-0.7-0.2-1.2-0.7-1.6S6.4,3,5.6,3
		C4.9,3,4.3,3.1,3.8,3.5S3.2,4.3,3.2,4.8c0,0.5,0.2,0.9,0.7,1.2c0.4,0.3,1.2,0.6,2.3,1C7.8,7.4,9,8,9.8,8.7c0.8,0.7,1.2,1.7,1.2,2.8
		c0,1.2-0.5,2.2-1.4,2.9c-1,0.7-2.2,1.1-3.8,1.1c-1.5,0-2.9-0.4-4.1-1.2S0,12.3,0,10.9l0-0.1h2.8c0,0.8,0.3,1.5,0.8,1.9
		s1.2,0.6,2.2,0.6c0.8,0,1.4-0.2,1.8-0.5S8.1,12.1,8.1,11.5z"/>
	<path class="st0" d="M19.4,13.7c-0.3,0.6-0.7,1-1.2,1.3s-1.1,0.4-1.7,0.4c-1.1,0-2-0.4-2.6-1.1s-0.9-1.8-0.9-3.3V4.7h2.8v6.4
		c0,0.8,0.1,1.3,0.4,1.7s0.6,0.5,1.2,0.5c0.5,0,0.8-0.1,1.2-0.2c0.3-0.1,0.6-0.4,0.8-0.7V4.7H22v10.6h-2.4L19.4,13.7z"/>
	<path class="st0" d="M33.7,10.2c0,1.6-0.4,2.8-1.1,3.8s-1.7,1.4-3,1.4c-0.6,0-1.1-0.1-1.6-0.4s-0.8-0.6-1.2-1.1l-0.2,1.3h-2.4V0H27
		v5.8c0.3-0.4,0.7-0.7,1.1-1s0.9-0.3,1.5-0.3C30.9,4.5,32,5,32.7,6c0.7,1,1.1,2.4,1.1,4V10.2z M30.9,10c0-1-0.2-1.9-0.5-2.5
		c-0.3-0.6-0.8-0.9-1.5-0.9c-0.4,0-0.8,0.1-1.1,0.3S27.2,7.4,27,7.8v4.5c0.2,0.3,0.4,0.6,0.7,0.7c0.3,0.2,0.7,0.3,1.1,0.3
		c0.7,0,1.2-0.3,1.5-0.8s0.4-1.3,0.4-2.2V10z"/>
	<path class="st0" d="M48.3,12.2h-5l-1,3.1h-2.9L44.4,1h2.9l4.9,14.2h-2.9L48.3,12.2z M44,9.9h3.6l-1.8-5.6h-0.1L44,9.9z"/>
</g>
</svg>
