<?xml version="1.0" encoding="utf-8"?>
<!-- Generator: Adobe Illustrator 19.2.1, SVG Export Plug-In . SVG Version: 6.00 Build 0)  -->
<!DOCTYPE svg>
<svg version="1.1" id="Layer_1" xmlns="http://www.w3.org/2000/svg" xmlns:xlink="http://www.w3.org/1999/xlink" x="0px" y="0px"
	 width="65px" height="17.6px" viewBox="0 0 65 17.6" style="enable-background:new 0 0 65 17.6;" xml:space="preserve">
<style type="text/css">
	.st0{fill:#007FAD;}
</style>
<g>
	<path class="st0" d="M10.3,13.7H7.8V8.4H2.6v5.3H0V0.9h2.6v5.5h5.2V0.9h2.6V13.7z"/>
	<path class="st0" d="M16.7,13.9c-1.4,0-2.5-0.4-3.3-1.3s-1.2-2-1.2-3.3V8.9c0-1.4,0.4-2.6,1.2-3.5S15.2,4,16.5,4
		c1.3,0,2.3,0.4,3,1.2s1.1,1.8,1.1,3.1v1.4h-5.7l0,0.1c0,0.6,0.3,1.1,0.6,1.5s0.9,0.6,1.5,0.6c0.6,0,1-0.1,1.4-0.2
		c0.4-0.1,0.8-0.3,1.2-0.5l0.7,1.6c-0.4,0.3-0.9,0.6-1.5,0.8S17.5,13.9,16.7,13.9z M16.5,6c-0.5,0-0.8,0.2-1.1,0.5S14.9,7.4,14.9,8
		l0,0h3.1V7.8c0-0.5-0.1-1-0.4-1.3S17,6,16.5,6z"/>
	<path class="st0" d="M27.6,13.7c-0.1-0.2-0.2-0.4-0.2-0.7s-0.1-0.5-0.1-0.7c-0.3,0.5-0.6,0.8-1,1.2s-0.9,0.5-1.5,0.5
		c-1,0-1.8-0.3-2.3-0.8s-0.8-1.2-0.8-2.1c0-0.9,0.4-1.7,1.1-2.2s1.8-0.8,3.1-0.8h1.4V7.3c0-0.5-0.1-0.8-0.4-1.1s-0.6-0.4-1.1-0.4
		c-0.4,0-0.7,0.1-1,0.3S24.5,6.7,24.5,7L22,7L22,7c0-0.8,0.3-1.5,1-2.1S24.8,4,26,4c1.1,0,2.1,0.3,2.8,0.9s1.1,1.4,1.1,2.5v3.9
		c0,0.4,0,0.9,0.1,1.3s0.2,0.8,0.3,1.2H27.6z M25.3,12c0.5,0,0.9-0.1,1.2-0.3s0.6-0.5,0.7-0.8V9.5h-1.4c-0.5,0-1,0.1-1.2,0.4
		s-0.4,0.6-0.4,1c0,0.3,0.1,0.6,0.3,0.8S24.9,12,25.3,12z"/>
	<path class="st0" d="M31.3,9c0-1.5,0.3-2.7,1-3.6C33,4.5,33.9,4,35,4c0.5,0,0.9,0.1,1.3,0.3s0.7,0.5,1,0.9V0h2.6v13.7h-2.2
		l-0.2-1.2c-0.3,0.4-0.7,0.8-1.1,1s-0.9,0.3-1.4,0.3c-1.2,0-2.1-0.4-2.7-1.3c-0.6-0.9-1-2-1-3.4V9z M33.9,9.2c0,0.8,0.1,1.5,0.4,2
		s0.7,0.7,1.4,0.7c0.4,0,0.7-0.1,1-0.2s0.5-0.4,0.7-0.7V7c-0.2-0.3-0.4-0.5-0.7-0.7c-0.3-0.2-0.6-0.3-1-0.3c-0.6,0-1.1,0.3-1.4,0.8
		C34,7.4,33.9,8.1,33.9,9V9.2z"/>
	<path class="st0" d="M44.6,1.9H42V0h2.6V1.9z M44.6,13.7H42V4.2h2.6V13.7z"/>
	<path class="st0" d="M49,4.2l0.1,1.4c0.3-0.5,0.7-0.9,1.2-1.1s1-0.4,1.6-0.4c1,0,1.7,0.3,2.2,0.9s0.8,1.5,0.8,2.8v5.9h-2.6V7.8
		c0-0.6-0.1-1.1-0.4-1.4S51.3,6,50.8,6c-0.3,0-0.6,0.1-0.9,0.2s-0.5,0.3-0.7,0.6v6.9h-2.6V4.2H49z"/>
	<path class="st0" d="M56.5,9c0-1.5,0.3-2.7,1-3.6S59,4,60.2,4c0.5,0,1,0.1,1.4,0.4s0.8,0.6,1,1l0.2-1.2H65v9.5
		c0,1.2-0.4,2.2-1.2,2.9c-0.8,0.7-1.9,1-3.4,1c-0.5,0-1-0.1-1.5-0.2s-1-0.3-1.5-0.5l0.5-1.9c0.4,0.2,0.8,0.3,1.2,0.4
		s0.9,0.1,1.3,0.1c0.7,0,1.2-0.1,1.6-0.4s0.5-0.8,0.5-1.4v-0.9c-0.3,0.4-0.6,0.6-1,0.8s-0.8,0.3-1.3,0.3c-1.2,0-2.1-0.4-2.7-1.3
		s-1-2-1-3.4V9z M59,9.2c0,0.8,0.1,1.5,0.4,2s0.7,0.7,1.4,0.7c0.4,0,0.7-0.1,1-0.2c0.3-0.1,0.5-0.4,0.7-0.6V6.9
		c-0.2-0.3-0.4-0.5-0.7-0.7c-0.3-0.2-0.6-0.2-1-0.2c-0.6,0-1.1,0.3-1.4,0.8C59.2,7.4,59,8.1,59,9V9.2z"/>
</g>
</svg>
