<?xml version="1.0" encoding="utf-8"?>
<!-- Generator: Adobe Illustrator 22.1.0, SVG Export Plug-In . SVG Version: 6.00 Build 0)  -->
<!DOCTYPE svg>
<svg version="1.1" id="Layer_1" xmlns="http://www.w3.org/2000/svg" xmlns:xlink="http://www.w3.org/1999/xlink" x="0px" y="0px"
	 width="31.2px" height="22.7px" viewBox="0 0 31.2 22.7" style="enable-background:new 0 0 31.2 22.7;" xml:space="preserve">
<style type="text/css">
	.st0{fill:#007FAD;}
	.st1{fill:#B3B3B3;}
</style>
<g>
	<g>
		<path class="st0" d="M18.2,5.9c-0.8-0.4-1.7-0.6-2.6-0.6c-3.3,0-6,2.7-6,6c0,0.9,0.2,1.8,0.6,2.6L18.2,5.9z"/>
	</g>
	<g>
		<path class="st0" d="M13,16.8c0.8,0.4,1.7,0.6,2.6,0.6c3.3,0,6-2.7,6-6c0-0.9-0.2-1.8-0.6-2.6L13,16.8z"/>
	</g>
</g>
<g>
	<path class="st0" d="M7.8,16.3c-3.1-2.3-5.3-4.9-5.3-4.9s6.5-8,13-8c1.4,0,2.8,0.4,4.2,1l1.5-1.5c-1.8-0.9-3.7-1.5-5.7-1.5
		C8.3,1.4,1.3,9.7,1,10.1l-1,1.3l1,1.3c0.2,0.2,2.3,2.8,5.4,5.1L7.8,16.3z"/>
	<path class="st0" d="M30.1,10.1C30,9.9,27.8,7.3,24.8,5l-1.4,1.4c3.1,2.3,5.3,4.9,5.3,4.9s-6.5,8-13,8c-1.4,0-2.8-0.4-4.2-1
		l-1.5,1.5c1.8,0.9,3.7,1.5,5.7,1.5c7.3,0,14.2-8.4,14.5-8.7l1-1.3L30.1,10.1z"/>
</g>
<rect x="0" y="10.9" transform="matrix(0.7071 -0.7071 0.7071 0.7071 -3.4642 14.3437)" class="st1" width="31.1" height="1"/>
</svg>
