<?xml version="1.0" encoding="utf-8"?>
<!-- Generator: Adobe Illustrator 19.1.0, SVG Export Plug-In . SVG Version: 6.00 Build 0)  -->
<!DOCTYPE svg>
<svg version="1.1" id="Layer_1" xmlns="http://www.w3.org/2000/svg" xmlns:xlink="http://www.w3.org/1999/xlink" x="0px" y="0px"
	 width="19.5px" height="13.4px" viewBox="0 0 19.5 13.4" enable-background="new 0 0 19.5 13.4" xml:space="preserve">
<g>
	<path fill="#0074D7" d="M3.5,0c1.2,0,2.2,0.5,3,1.4s1.1,2.2,1.1,3.7c0,2.1-0.7,3.9-2.1,5.5s-3.1,2.6-5.1,2.8v-1.2
		c1.5-1.3,2.2-2.9,2.2-4.9l0-0.7C0.9,6.2,0,5.1,0,3.3C0,2.4,0.3,1.6,1,1S2.5,0,3.5,0z M15.4,0c1.2,0,2.2,0.5,3,1.4s1.1,2.2,1.1,3.7
		c0,2.1-0.7,3.9-2.1,5.5s-3.1,2.6-5.1,2.8v-1.2c1.5-1.3,2.2-2.9,2.2-4.9l0-0.7C12.8,6.2,12,5.1,12,3.3c0-0.9,0.3-1.7,1-2.3
		S14.4,0,15.4,0z"/>
</g>
</svg>
