<?xml version="1.0" encoding="utf-8"?>
<!-- Generator: Adobe Illustrator 19.1.0, SVG Export Plug-In . SVG Version: 6.00 Build 0)  -->
<!DOCTYPE svg>
<svg version="1.1" id="Layer_1" xmlns="http://www.w3.org/2000/svg" xmlns:xlink="http://www.w3.org/1999/xlink" x="0px" y="0px"
	 width="40px" height="17px" viewBox="-459 267 40 17" enable-background="new -459 267 40 17" xml:space="preserve">
<circle fill="#0074D7" cx="-455.5" cy="270.5" r="3.5"/>
<g>
	<path fill="#C2C2C2" d="M-455.5,279c0.8,0,1.5,0.7,1.5,1.5c0,0.8-0.7,1.5-1.5,1.5s-1.5-0.7-1.5-1.5C-457,279.7-456.3,279-455.5,279
		 M-455.5,277c-1.9,0-3.5,1.6-3.5,3.5s1.6,3.5,3.5,3.5s3.5-1.6,3.5-3.5S-453.6,277-455.5,277L-455.5,277z"/>
</g>
<circle fill="#0074D7" cx="-422.5" cy="280.5" r="3.5"/>
<g>
	<path fill="#C2C2C2" d="M-422.5,269c0.8,0,1.5,0.7,1.5,1.5c0,0.8-0.7,1.5-1.5,1.5s-1.5-0.7-1.5-1.5C-424,269.7-423.3,269-422.5,269
		 M-422.5,267c-1.9,0-3.5,1.6-3.5,3.5s1.6,3.5,3.5,3.5s3.5-1.6,3.5-3.5S-420.6,267-422.5,267L-422.5,267z"/>
</g>
<rect x="-449" y="275" transform="matrix(-0.9451 -0.3268 0.3268 -0.9451 -943.9249 392.4183)" fill="#C2C2C2" width="20" height="1"/>
</svg>
