<?xml version="1.0" encoding="utf-8"?>
<!-- Generator: Adobe Illustrator 19.2.1, SVG Export Plug-In . SVG Version: 6.00 Build 0)  -->
<!DOCTYPE svg>
<svg version="1.1" id="Layer_1" xmlns="http://www.w3.org/2000/svg" xmlns:xlink="http://www.w3.org/1999/xlink" x="0px" y="0px"
	 width="23.9px" height="11.4px" viewBox="0 0 23.9 11.4" style="enable-background:new 0 0 23.9 11.4;" xml:space="preserve">
<style type="text/css">
	.st0{fill:#007FAD;}
</style>
<g>
	<path class="st0" d="M3.5,9.3h5.4v2.1H0V9.9l5.4-7.8H0V0h8.8v1.4L3.5,9.3z"/>
	<path class="st0" d="M13.1,11.4h-2.7V0h2.7V11.4z"/>
	<path class="st0" d="M17.7,7.5v3.9H15V0h4.5c0.9,0,1.6,0.2,2.3,0.5s1.2,0.8,1.6,1.4s0.6,1.3,0.6,2c0,1.1-0.4,2-1.2,2.7
		s-1.9,1-3.3,1H17.7z M17.7,5.4h1.8c0.5,0,0.9-0.1,1.2-0.4s0.4-0.6,0.4-1.1c0-0.5-0.1-1-0.4-1.3S20,2.1,19.5,2.1h-1.8V5.4z"/>
</g>
</svg>
