<?xml version="1.0" encoding="utf-8"?>
<!-- Generator: Adobe Illustrator 19.2.1, SVG Export Plug-In . SVG Version: 6.00 Build 0)  -->
<!DOCTYPE svg>
<svg version="1.1" id="Layer_1" xmlns="http://www.w3.org/2000/svg" xmlns:xlink="http://www.w3.org/1999/xlink" x="0px" y="0px"
	 width="40px" height="19px" viewBox="0 0 40 19" style="enable-background:new 0 0 40 19;" xml:space="preserve">
<style type="text/css">
	.st0{fill:#007FAD;}
	.st1{fill:#C4C4C4;}
</style>
<rect x="11" y="5" class="st0" width="8" height="1"/>
<rect x="21" y="5" class="st0" width="8" height="1"/>
<rect x="6" y="9" class="st0" width="8" height="1"/>
<rect x="16" y="9" class="st0" width="8" height="1"/>
<rect x="26" y="9" class="st0" width="8" height="1"/>
<rect x="11" y="13" class="st0" width="8" height="1"/>
<rect x="21" y="13" class="st0" width="8" height="1"/>
<g>
	<path class="st1" d="M38,1c0.6,0,1,0.4,1,1v15c0,0.6-0.4,1-1,1H2c-0.6,0-1-0.4-1-1V2c0-0.6,0.4-1,1-1H38 M38,0H2C0.9,0,0,0.9,0,2
		v15c0,1.1,0.9,2,2,2h36c1.1,0,2-0.9,2-2V2C40,0.9,39.1,0,38,0L38,0z"/>
</g>
</svg>
