<?xml version="1.0" encoding="utf-8"?>
<!-- Generator: Adobe Illustrator 19.1.0, SVG Export Plug-In . SVG Version: 6.00 Build 0)  -->
<!DOCTYPE svg>
<svg version="1.1" id="Layer_1" xmlns="http://www.w3.org/2000/svg" xmlns:xlink="http://www.w3.org/1999/xlink" x="0px" y="0px"
	 width="40px" height="20px" viewBox="0 0 40 20" enable-background="new 0 0 40 20" xml:space="preserve">
<g>
	<path fill="#007FAD" d="M37,2c0.5,0,1,0.5,1,1v8c0,0.5-0.5,1-1,1H9c-0.5,0-1-0.5-1-1V3c0-0.5,0.5-1,1-1H37 M37,0H9C7.4,0,6,1.4,6,3
		v8c0,1.6,1.4,3,3,3h28c1.6,0,3-1.4,3-3V3C40,1.4,38.6,0,37,0L37,0z"/>
</g>
<rect y="19" fill="#C2C2C2" width="34" height="1"/>
</svg>
