<?xml version="1.0" encoding="utf-8"?>
<!-- Generator: Adobe Illustrator 20.1.0, SVG Export Plug-In . SVG Version: 6.00 Build 0)  -->
<svg version="1.1" id="default" xmlns="http://www.w3.org/2000/svg" xmlns:xlink="http://www.w3.org/1999/xlink" x="0px" y="0px"
	 width="50px" height="20px" viewBox="0 0 50 20" style="enable-background:new 0 0 50 20;" xml:space="preserve">
<style type="text/css">
	.st0{fill:#007FAD;}
	.st1{fill:#FFFFFF;}
</style>
<path class="st0" d="M0,2c0-1.1,0.9-2,2-2h46c1.1,0,2,0.9,2,2v16c0,1.1-0.9,2-2,2H2c-1.1,0-2-0.9-2-2V2z"/>
<g id="XMLID_1_">
	<g>
		<path class="st1" d="M30.6,13.1v-1.4h-0.9c-1.4,0-2.2,0.4-2.2,1.3c0,0.4,0.1,0.7,0.4,0.9c0.3,0.1,0.6,0.2,1,0.2s0.7-0.1,1-0.3
			C30.2,13.6,30.5,13.4,30.6,13.1z M31.2,8.6c0.5,0.4,0.7,0.9,0.7,1.6v3.2c0,0.6,0.1,1.1,0.2,1.5V15h-1.3c-0.1-0.1-0.1-0.4-0.2-0.7
			c-0.5,0.6-1.2,0.9-2,0.9c-0.7,0-1.2-0.2-1.7-0.6c-0.4-0.4-0.7-0.9-0.7-1.5c0-0.7,0.3-1.3,0.8-1.7c0.5-0.4,1.3-0.6,2.3-0.6h1.1
			v-0.5c0-0.4-0.1-0.7-0.4-1C30,9.1,29.7,9,29.2,9c-0.4,0-0.8,0.1-1.1,0.3c-0.3,0.2-0.4,0.5-0.4,0.8h-1.2c0-0.3,0.1-0.7,0.4-1
			c0.2-0.3,0.6-0.6,1-0.8S28.8,8,29.3,8C30.1,8,30.7,8.2,31.2,8.6z"/>
		<path class="st1" d="M23,11.6l-1.6-4.3l-1.5,4.3H23z M22,5.8l3.5,9.2h-1.3l-0.8-2.4h-3.9L18.7,15h-1.3l3.5-9.2H22z"/>
	</g>
	<g>
	</g>
</g>
</svg>
