<?xml version="1.0" encoding="utf-8"?>
<!-- Generator: Adobe Illustrator 19.2.1, SVG Export Plug-In . SVG Version: 6.00 Build 0)  -->
<!DOCTYPE svg>
<svg version="1.1" id="Layer_1" xmlns="http://www.w3.org/2000/svg" xmlns:xlink="http://www.w3.org/1999/xlink" x="0px" y="0px"
	 width="29.9px" height="24px" viewBox="0 0 29.9 24" style="enable-background:new 0 0 29.9 24;" xml:space="preserve">
<style type="text/css">
	.st0{fill:#007FAD;}
</style>
<g>
	<path class="st0" d="M16.1,0.5c0-0.5-0.3-0.7-0.7-0.4L5.8,6.6C5.4,6.8,4.7,7.1,4.2,7.1H0.9C0.4,7.1,0,7.5,0,7.9v8.1
		c0,0.5,0.4,0.9,0.9,0.9h3.3c0.5,0,1.2,0.2,1.6,0.5l9.5,6.4c0.4,0.3,0.7,0.1,0.7-0.4V0.5z"/>
	<path class="st0" d="M22.9,12c0,1.8-1,3.4-2.4,4.2l1.1,1.7c2-1.2,3.3-3.4,3.3-5.9c0-2.5-1.3-4.6-3.2-5.9l-1.1,1.7
		C22,8.7,22.9,10.2,22.9,12z"/>
	<path class="st0" d="M27.9,12c0,3.6-1.9,6.7-4.7,8.4l1.1,1.7c3.3-2.1,5.6-5.9,5.6-10.1c0-4.2-2.2-7.9-5.5-10.1l-1.1,1.7
		C26.1,5.4,27.9,8.5,27.9,12z"/>
</g>
</svg>
