<?xml version="1.0" encoding="utf-8"?>
<!-- Generator: Adobe Illustrator 19.2.1, SVG Export Plug-In . SVG Version: 6.00 Build 0)  -->
<!DOCTYPE svg>
<svg version="1.1" id="Layer_1" xmlns="http://www.w3.org/2000/svg" xmlns:xlink="http://www.w3.org/1999/xlink" x="0px" y="0px"
	 width="38.8px" height="15.4px" viewBox="0 0 38.8 15.4" style="enable-background:new 0 0 38.8 15.4;" xml:space="preserve">
<style type="text/css">
	.st0{fill:#007FAD;}
</style>
<g>
	<path class="st0" d="M10.9,3.2h-4v12H4v-12H0V1h10.9V3.2z"/>
	<path class="st0" d="M15.2,2.1h-2.9V0h2.9V2.1z M15.2,15.2h-2.9V4.7h2.9V15.2z"/>
	<path class="st0" d="M21,2.1v2.6h1.8v2H21v5.4c0,0.4,0.1,0.7,0.3,0.9s0.4,0.3,0.7,0.3c0.1,0,0.3,0,0.4,0s0.2,0,0.4-0.1l0.2,2.1
		c-0.3,0.1-0.6,0.2-0.8,0.2s-0.6,0.1-0.9,0.1c-1,0-1.7-0.3-2.3-0.8s-0.8-1.4-0.8-2.6V6.7h-1.5v-2h1.5V2.1H21z"/>
	<path class="st0" d="M27.6,15.2h-2.9V0h2.9V15.2z"/>
	<path class="st0" d="M34.6,15.4c-1.5,0-2.7-0.5-3.7-1.5s-1.4-2.2-1.4-3.7V9.9C29.6,8.3,30,7,30.9,6s2-1.5,3.5-1.5
		c1.4,0,2.5,0.4,3.3,1.3s1.2,2,1.2,3.5v1.6h-6.3l0,0.1c0.1,0.7,0.3,1.3,0.7,1.7s1,0.7,1.7,0.7c0.6,0,1.2-0.1,1.6-0.2
		c0.4-0.1,0.9-0.3,1.4-0.6l0.8,1.8c-0.4,0.4-1,0.6-1.7,0.9S35.4,15.4,34.6,15.4z M34.3,6.7c-0.5,0-0.9,0.2-1.2,0.6
		c-0.3,0.4-0.5,0.9-0.6,1.6l0,0H36V8.7c0-0.6-0.1-1.1-0.4-1.5S34.9,6.7,34.3,6.7z"/>
</g>
</svg>
