<?xml version="1.0" encoding="utf-8"?>
<!-- Generator: Adobe Illustrator 19.2.1, SVG Export Plug-In . SVG Version: 6.00 Build 0)  -->
<!DOCTYPE svg>
<svg version="1.1" id="Layer_1" xmlns="http://www.w3.org/2000/svg" xmlns:xlink="http://www.w3.org/1999/xlink" x="0px" y="0px"
	 width="40px" height="26px" viewBox="0 0 40 26" style="enable-background:new 0 0 40 26;" xml:space="preserve">
<style type="text/css">
	.st0{fill:#C2C2C2;}
	.st1{fill:#007FAD;}
</style>
<g>
	<g>
		<path class="st0" d="M38,1c0.6,0,1,0.4,1,1v22c0,0.6-0.4,1-1,1H2c-0.6,0-1-0.4-1-1V2c0-0.6,0.4-1,1-1H38 M38,0H2C0.9,0,0,0.9,0,2
			v22c0,1.1,0.9,2,2,2h36c1.1,0,2-0.9,2-2V2C40,0.9,39.1,0,38,0L38,0z"/>
	</g>
</g>
<path class="st1" d="M35.4,21.2l-6.9-10.3c-0.3-0.5-0.8-0.5-1.1,0l-5.4,8.1L14.5,6.8c-0.3-0.5-0.8-0.5-1.1,0L4.5,21.2
	C4.2,21.6,4.4,22,5,22h16c0,0,0,0,0,0h14C35.6,22,35.8,21.6,35.4,21.2z"/>
<circle class="st1" cx="23" cy="7" r="2"/>
</svg>
