<?xml version="1.0" encoding="UTF-8"?>
<svg width="40px" height="26px" viewBox="0 0 40 26" version="1.1" xmlns="http://www.w3.org/2000/svg" xmlns:xlink="http://www.w3.org/1999/xlink">
    <!-- Generator: Sketch 50.2 (55047) - http://www.bohemiancoding.com/sketch -->
    <title>picker_imagehotspot</title>
    <desc>Created with Sketch.</desc>
    <defs></defs>
    <g id="Symbols" stroke="none" stroke-width="1" fill="none" fill-rule="evenodd">
        <g id="block-picker/image-hotspot" transform="translate(-10.000000, -7.000000)">
            <g id="picker_imagehotspot" transform="translate(10.000000, 7.000000)">
                <path d="M38,1 C38.6,1 39,1.4 39,2 L39,24 C39,24.6 38.6,25 38,25 L2,25 C1.4,25 1,24.6 1,24 L1,2 C1,1.4 1.4,1 2,1 L38,1 Z M38,0 L2,0 C0.9,0 0,0.9 0,2 L0,24 C0,25.1 0.9,26 2,26 L38,26 C39.1,26 40,25.1 40,24 L40,2 C40,0.9 39.1,0 38,0 Z" id="Shape" fill="#C2C2C2" fill-rule="nonzero"></path>
                <path d="M35.4,21.2 L28.5,10.9 C28.2,10.4 27.7,10.4 27.4,10.9 L22,19 L14.5,6.8 C14.2,6.3 13.7,6.3 13.4,6.8 L4.5,21.2 C4.2,21.6 4.4,22 5,22 L21,22 C21,22 21,22 21,22 L35,22 C35.6,22 35.8,21.6 35.4,21.2 Z" id="Shape" fill="#C2C2C2" fill-rule="nonzero"></path>
                <g id="Group" transform="translate(4.000000, 8.000000)">
                    <circle id="Oval-2" stroke="#007FAD" fill="#FFFFFF" cx="5" cy="5" r="5"></circle>
                    <circle id="Oval" fill="#007FAD" fill-rule="nonzero" cx="5" cy="5" r="3.18181818"></circle>
                </g>
            </g>
        </g>
    </g>
</svg>