<?xml version="1.0" encoding="utf-8"?>
<!-- Generator: Adobe Illustrator 19.2.1, SVG Export Plug-In . SVG Version: 6.00 Build 0)  -->
<!DOCTYPE svg>
<svg version="1.1" id="Layer_1" xmlns="http://www.w3.org/2000/svg" xmlns:xlink="http://www.w3.org/1999/xlink" x="0px" y="0px"
	 width="40px" height="27px" viewBox="0 0 40 27" style="enable-background:new 0 0 40 27;" xml:space="preserve">
<style type="text/css">
	.st0{fill:#007FAD;}
	.st1{fill:#C2C2C2;}
</style>
<g>
	<circle class="st0" cx="3.5" cy="13.5" r="3.5"/>
	<g>
		<path class="st1" d="M3.5,2C4.3,2,5,2.7,5,3.5S4.3,5,3.5,5S2,4.3,2,3.5S2.7,2,3.5,2 M3.5,0C1.6,0,0,1.6,0,3.5S1.6,7,3.5,7
			S7,5.4,7,3.5S5.4,0,3.5,0L3.5,0z"/>
	</g>
	<g>
		<path class="st1" d="M3.5,22C4.3,22,5,22.7,5,23.5S4.3,25,3.5,25S2,24.3,2,23.5S2.7,22,3.5,22 M3.5,20C1.6,20,0,21.6,0,23.5
			S1.6,27,3.5,27S7,25.4,7,23.5S5.4,20,3.5,20L3.5,20z"/>
	</g>
	<rect x="12" y="3" class="st1" width="28" height="1"/>
	<rect x="12" y="13" class="st0" width="28" height="1"/>
	<rect x="12" y="23" class="st1" width="28" height="1"/>
</g>
</svg>
